<?xml version="1.0" encoding="iso-8859-1"?>
<!-- Generator: Adobe Illustrator 16.0.0, SVG Export Plug-In . SVG Version: 6.00 Build 0)  -->
<!DOCTYPE svg PUBLIC "-//W3C//DTD SVG 1.1//EN" "http://www.w3.org/Graphics/SVG/1.1/DTD/svg11.dtd">
<svg version="1.1" id="Capa_1" xmlns="http://www.w3.org/2000/svg" xmlns:xlink="http://www.w3.org/1999/xlink" x="0px" y="0px"
	 width="611.997px" height="611.998px" viewBox="0 0 611.997 611.998" style="enable-background:new 0 0 611.997 611.998;"
	 xml:space="preserve">
<g>
	<path d="M601.444,535.668L433.671,368.273c1.504-2.26,2.639-6.032,3.765-10.931c17.719-29.784,28.682-62.206,32.052-96.518
		c0.772-7.915,1.126-16.215,1.126-24.129c0-26.012-4.343-52.088-13.19-77.666c-11.51-33.243-30.098-62.648-55.426-88.226
		c-90.422-91.306-242.656-91.097-332.909,0c-30.018,30.307-50.391,65.633-61.08,105.945c-10.802,40.755-10.553,80.682,0,121.026
		c10.561,40.344,30.652,75.67,61.08,105.944c45.355,45.131,104.811,68.617,166.269,68.617c47.125,0,89.964-13.625,129.688-38.455
		l6.033-3.772L539.608,598.26c6.418,6.403,13.199,10.184,19.609,10.932c1.504,0.378,2.638,0.45,3.764,0.378
		c4.537-0.298,8.695-1.464,12.065-3.395c4.552-2.598,9.427-6.41,14.711-11.687l7.536-7.545c5.276-5.276,9.089-10.158,11.688-14.703
		c1.93-3.37,3.016-7.914,3.016-13.577v-3.016C611.997,549.238,608.048,542.264,601.444,535.668z M422.354,287.214
		c-8.848,33.129-25.634,62.206-50.52,87.091c-36.194,36.194-84.832,56.552-136.478,56.552c-50.897,0-99.221-20.687-136.863-56.552
		c-73.957-70.458-73.651-202.189,0-273.34c37.2-35.929,85.588-56.93,136.863-56.93c53.914,0,98.892,19.111,136.478,56.93
		c24.62,24.773,41.849,53.536,50.52,86.714C431.024,220.857,431.226,253.988,422.354,287.214z"/>
</g>
<g>
</g>
<g>
</g>
<g>
</g>
<g>
</g>
<g>
</g>
<g>
</g>
<g>
</g>
<g>
</g>
<g>
</g>
<g>
</g>
<g>
</g>
<g>
</g>
<g>
</g>
<g>
</g>
<g>
</g>
</svg>
