<?xml version="1.0" encoding="utf-8"?>
<!-- Uploaded to: SVG Repo, www.svgrepo.com, Generator: SVG Repo Mixer Tools -->
<svg fill="#000000" width="800px" height="800px" viewBox="0 0 32 32" version="1.1" xmlns="http://www.w3.org/2000/svg">
<title>star-filled</title>
<path d="M30.383 12.699c-0.1-0.303-0.381-0.519-0.713-0.519-0 0-0 0-0 0h-9.898l-3.059-9.412c-0.124-0.276-0.396-0.464-0.713-0.464s-0.589 0.189-0.711 0.459l-0.002 0.005-3.059 9.412h-9.897c-0.414 0-0.749 0.336-0.749 0.75 0 0.248 0.121 0.469 0.307 0.605l0.002 0.001 8.007 5.818-3.059 9.412c-0.023 0.070-0.037 0.15-0.037 0.233 0 0.414 0.336 0.75 0.75 0.75 0.165 0 0.318-0.054 0.442-0.144l-0.002 0.001 8.008-5.818 8.006 5.818c0.122 0.090 0.275 0.144 0.441 0.144 0.414 0 0.75-0.336 0.75-0.75 0-0.083-0.014-0.164-0.039-0.239l0.002 0.005-3.059-9.412 8.010-5.818c0.188-0.138 0.308-0.357 0.308-0.605 0-0.083-0.014-0.163-0.038-0.238l0.002 0.005z"></path>
</svg>